<!--?xml version="1.0" standalone="no"?-->
              <svg id="sw-js-blob-svg" viewBox="0 0 100 100" xmlns="http://www.w3.org/2000/svg" version="1.1">
                    <defs> 
                        <linearGradient id="sw-gradient" x1="0" x2="1" y1="1" y2="0">
                            <stop id="stop1" stop-color="rgba(65.259, 61.027, 124.156, 0.73)" offset="0%"></stop>
                            <stop id="stop2" stop-color="rgba(64.4, 7.128, 249.379, 0.71)" offset="100%"></stop>
                        </linearGradient>
                    </defs>
                <path fill="url(#sw-gradient)" d="M24,-28.7C31.5,-22.3,38.4,-15.1,41.3,-6.2C44.2,2.8,43.2,13.6,38.2,21.9C33.2,30.3,24.3,36.3,14.7,39.3C5.1,42.4,-5.3,42.6,-14.7,39.5C-24.1,36.4,-32.6,30.1,-34.7,22.2C-36.7,14.2,-32.3,4.6,-29.7,-4.4C-27.1,-13.5,-26.4,-22,-21.8,-29C-17.1,-36,-8.6,-41.4,-0.2,-41.2C8.2,-41,16.4,-35.2,24,-28.7Z" width="100%" height="100%" transform="translate(50 50)" stroke-width="0" style="transition: 0.3s;"></path>
              </svg>